<mxfile host="65bd71144e">
    <diagram id="R2lEEEUBdFMjLlhIrx00" name="Page-1">
        <mxGraphModel dx="1198" dy="378" grid="1" gridSize="10" guides="1" tooltips="1" connect="1" arrows="1" fold="1" page="1" pageScale="1" pageWidth="850" pageHeight="1100" math="0" shadow="0" extFonts="Permanent Marker^https://fonts.googleapis.com/css?family=Permanent+Marker">
            <root>
                <mxCell id="0"/>
                <mxCell id="1" parent="0"/>
                <mxCell id="FYgg8iOb-SnoNEJaHb6P-1" value="users" style="swimlane;fontStyle=0;childLayout=stackLayout;horizontal=1;startSize=26;horizontalStack=0;resizeParent=1;resizeParentMax=0;resizeLast=0;collapsible=1;marginBottom=0;align=center;fontSize=14;" parent="1" vertex="1">
                    <mxGeometry x="540" y="310" width="340" height="270" as="geometry"/>
                </mxCell>
                <mxCell id="FYgg8iOb-SnoNEJaHb6P-4" value="&lt;div&gt;&lt;div&gt;&lt;font style=&quot;font-size: 18px;&quot;&gt;&amp;nbsp;･&lt;span style=&quot;background-color: initial;&quot;&gt;id&lt;/span&gt;&lt;/font&gt;&lt;/div&gt;&lt;/div&gt;&lt;font size=&quot;3&quot;&gt;・&lt;span style=&quot;font-family: Arial; white-space-collapse: preserve; background-color: rgb(255, 255, 255);&quot;&gt;password_digest&lt;/span&gt;&lt;/font&gt;&lt;div&gt;&lt;div&gt;&lt;font size=&quot;3&quot;&gt;・email&lt;/font&gt;&lt;/div&gt;&lt;div&gt;&lt;font size=&quot;3&quot;&gt;&lt;span style=&quot;background-color: initial;&quot;&gt;・&lt;/span&gt;&lt;font style=&quot;background-color: initial;&quot; face=&quot;Arial&quot;&gt;&lt;span style=&quot;white-space-collapse: preserve; background-color: rgb(255, 255, 255);&quot;&gt;roll（管理者か企業担当者かゲストか&lt;/span&gt;&lt;/font&gt;&lt;span style=&quot;white-space-collapse: preserve; background-color: rgb(255, 255, 255); font-family: Arial;&quot;&gt;）&lt;/span&gt;&lt;/font&gt;&lt;/div&gt;&lt;div&gt;&lt;span style=&quot;font-family: Arial; white-space-collapse: preserve; background-color: rgb(255, 255, 255);&quot;&gt;&lt;font size=&quot;3&quot;&gt;・user_name&lt;/font&gt;&lt;/span&gt;&lt;/div&gt;&lt;div&gt;&lt;div&gt;&lt;font size=&quot;3&quot;&gt;・age&lt;/font&gt;&lt;/div&gt;&lt;div&gt;&lt;font size=&quot;3&quot;&gt;&lt;span style=&quot;font-family: Arial; white-space-collapse: preserve; background-color: rgb(255, 255, 255);&quot;&gt;・gender&lt;/span&gt;&lt;br&gt;&lt;/font&gt;&lt;/div&gt;&lt;div&gt;&lt;span style=&quot;font-family: Arial; white-space-collapse: preserve; background-color: rgb(255, 255, 255);&quot;&gt;&lt;font size=&quot;3&quot;&gt;・screen_name&lt;/font&gt;&lt;/span&gt;&lt;/div&gt;&lt;div&gt;&lt;font size=&quot;3&quot;&gt;&lt;span style=&quot;background-color: initial;&quot;&gt;・&lt;/span&gt;&lt;span style=&quot;white-space-collapse: preserve; font-family: Arial; background-color: rgb(255, 255, 255);&quot;&gt;company_id&lt;/span&gt;&lt;span style=&quot;font-family: Arial; white-space-collapse: preserve; background-color: rgb(255, 255, 255);&quot;&gt;&lt;br&gt;&lt;/span&gt;&lt;/font&gt;&lt;/div&gt;&lt;div&gt;&lt;font size=&quot;3&quot;&gt;&lt;span style=&quot;background-color: initial;&quot;&gt;・&lt;/span&gt;&lt;span style=&quot;font-family: Arial; white-space-collapse: preserve; background-color: rgb(255, 255, 255);&quot;&gt;created_at&lt;/span&gt;&lt;/font&gt;&lt;/div&gt;&lt;div&gt;&lt;font size=&quot;3&quot;&gt;&lt;span style=&quot;background-color: initial;&quot;&gt;・&lt;/span&gt;&lt;span style=&quot;font-family: Arial; white-space-collapse: preserve; background-color: rgb(255, 255, 255);&quot;&gt;updated_at&lt;/span&gt;&lt;/font&gt;&lt;/div&gt;&lt;div&gt;&lt;br&gt;&lt;/div&gt;&lt;div&gt;&lt;br&gt;&lt;/div&gt;&lt;div&gt;&lt;br&gt;&lt;/div&gt;&lt;/div&gt;&lt;/div&gt;" style="text;strokeColor=none;fillColor=none;spacingLeft=4;spacingRight=4;overflow=hidden;rotatable=0;points=[[0,0.5],[1,0.5]];portConstraint=eastwest;fontSize=12;whiteSpace=wrap;html=1;" parent="FYgg8iOb-SnoNEJaHb6P-1" vertex="1">
                    <mxGeometry y="26" width="340" height="244" as="geometry"/>
                </mxCell>
                <mxCell id="FYgg8iOb-SnoNEJaHb6P-6" value="topics" style="swimlane;fontStyle=0;childLayout=stackLayout;horizontal=1;startSize=26;horizontalStack=0;resizeParent=1;resizeParentMax=0;resizeLast=0;collapsible=1;marginBottom=0;align=center;fontSize=14;" parent="1" vertex="1">
                    <mxGeometry x="170" y="240" width="270" height="170" as="geometry"/>
                </mxCell>
                <mxCell id="FYgg8iOb-SnoNEJaHb6P-9" value="&lt;div&gt;&lt;font style=&quot;font-size: 18px;&quot;&gt;&lt;span style=&quot;background-color: initial;&quot;&gt;・&amp;nbsp;&lt;/span&gt;&lt;span style=&quot;font-family: Arial; white-space-collapse: preserve; background-color: rgb(255, 255, 255);&quot;&gt;id&lt;/span&gt;&lt;span style=&quot;background-color: rgb(255, 255, 255); font-family: Arial; white-space-collapse: preserve;&quot;&gt;&lt;br&gt;&lt;/span&gt;&lt;/font&gt;&lt;/div&gt;&lt;div&gt;&lt;font size=&quot;3&quot;&gt;&lt;span style=&quot;background-color: initial;&quot;&gt;・&amp;nbsp;&lt;/span&gt;&lt;span style=&quot;background-color: rgb(255, 255, 255); font-family: Arial; white-space-collapse: preserve;&quot;&gt;title&lt;/span&gt;&lt;/font&gt;&lt;/div&gt;&lt;div&gt;&lt;font size=&quot;3&quot;&gt;&lt;span style=&quot;background-color: initial;&quot;&gt;・&amp;nbsp;&lt;/span&gt;&lt;span style=&quot;background-color: rgb(255, 255, 255); white-space-collapse: preserve; font-family: Arial;&quot;&gt;content&lt;/span&gt;&lt;br&gt;&lt;/font&gt;&lt;/div&gt;&lt;div&gt;&lt;div&gt;&lt;font size=&quot;3&quot;&gt;&lt;span style=&quot;background-color: initial;&quot;&gt;・&amp;nbsp;&lt;/span&gt;&lt;font face=&quot;Arial&quot;&gt;&lt;span style=&quot;white-space-collapse: preserve; background-color: rgb(255, 255, 255);&quot;&gt;user_id&lt;/span&gt;&lt;/font&gt;&lt;/font&gt;&lt;/div&gt;&lt;div&gt;&lt;div&gt;&lt;font size=&quot;3&quot;&gt;&lt;span style=&quot;background-color: initial;&quot;&gt;・&lt;/span&gt;&lt;span style=&quot;font-family: Arial; white-space-collapse: preserve; background-color: rgb(255, 255, 255);&quot;&gt;created_at&lt;/span&gt;&lt;/font&gt;&lt;/div&gt;&lt;div&gt;&lt;font size=&quot;3&quot;&gt;&lt;span style=&quot;background-color: initial;&quot;&gt;・&lt;/span&gt;&lt;span style=&quot;font-family: Arial; white-space-collapse: preserve; background-color: rgb(255, 255, 255);&quot;&gt;updated_at&lt;/span&gt;&lt;/font&gt;&lt;/div&gt;&lt;/div&gt;&lt;div&gt;&lt;span style=&quot;font-family: Arial; font-size: 13px; white-space-collapse: preserve; background-color: rgb(255, 255, 255);&quot;&gt;&lt;br&gt;&lt;/span&gt;&lt;/div&gt;&lt;/div&gt;" style="text;strokeColor=none;fillColor=none;spacingLeft=4;spacingRight=4;overflow=hidden;rotatable=0;points=[[0,0.5],[1,0.5]];portConstraint=eastwest;fontSize=12;whiteSpace=wrap;html=1;" parent="FYgg8iOb-SnoNEJaHb6P-6" vertex="1">
                    <mxGeometry y="26" width="270" height="144" as="geometry"/>
                </mxCell>
                <mxCell id="FYgg8iOb-SnoNEJaHb6P-20" value="reviews" style="swimlane;fontStyle=0;childLayout=stackLayout;horizontal=1;startSize=26;horizontalStack=0;resizeParent=1;resizeParentMax=0;resizeLast=0;collapsible=1;marginBottom=0;align=center;fontSize=14;" parent="1" vertex="1">
                    <mxGeometry x="170" y="520" width="270" height="180" as="geometry"/>
                </mxCell>
                <mxCell id="FYgg8iOb-SnoNEJaHb6P-21" value="&lt;span style=&quot;background-color: rgb(255, 255, 255); font-family: Arial; white-space-collapse: preserve;&quot;&gt;&lt;font style=&quot;font-size: 18px;&quot;&gt;・id&lt;/font&gt;&lt;/span&gt;&lt;div&gt;&lt;font size=&quot;3&quot;&gt;&lt;span style=&quot;font-family: Arial; white-space-collapse: preserve; background-color: rgb(255, 255, 255);&quot;&gt;・content&lt;/span&gt;&lt;br&gt;&lt;/font&gt;&lt;/div&gt;&lt;div&gt;&lt;font size=&quot;3&quot;&gt;&lt;span style=&quot;font-family: Arial; white-space-collapse: preserve; background-color: rgb(255, 255, 255);&quot;&gt;・user_id&lt;/span&gt;&lt;span style=&quot;font-family: Arial; white-space-collapse: preserve; background-color: rgb(255, 255, 255);&quot;&gt;&lt;br&gt;&lt;/span&gt;&lt;/font&gt;&lt;/div&gt;&lt;div&gt;&lt;font size=&quot;3&quot;&gt;&lt;span style=&quot;font-family: Arial; white-space-collapse: preserve; background-color: rgb(255, 255, 255);&quot;&gt;・select&lt;/span&gt;&lt;span style=&quot;font-family: Arial; white-space-collapse: preserve; background-color: rgb(255, 255, 255);&quot;&gt;&lt;br&gt;&lt;/span&gt;&lt;/font&gt;&lt;/div&gt;&lt;div&gt;&lt;font size=&quot;3&quot;&gt;&lt;span style=&quot;font-family: Arial; white-space-collapse: preserve; background-color: rgb(255, 255, 255);&quot;&gt;・company_id&lt;/span&gt;&lt;span style=&quot;font-family: Arial; white-space-collapse: preserve; background-color: rgb(255, 255, 255);&quot;&gt;&lt;br&gt;&lt;/span&gt;&lt;/font&gt;&lt;/div&gt;&lt;div&gt;&lt;font size=&quot;3&quot;&gt;&lt;span style=&quot;font-family: Arial; white-space-collapse: preserve; background-color: rgb(255, 255, 255);&quot;&gt;・created_at&lt;/span&gt;&lt;span style=&quot;font-family: Arial; white-space-collapse: preserve; background-color: rgb(255, 255, 255);&quot;&gt;&lt;br&gt;&lt;/span&gt;&lt;/font&gt;&lt;/div&gt;&lt;div&gt;&lt;span style=&quot;font-family: Arial; white-space-collapse: preserve; background-color: rgb(255, 255, 255);&quot;&gt;&lt;font size=&quot;3&quot;&gt;・updated_at&lt;/font&gt;&lt;/span&gt;&lt;span style=&quot;font-family: Arial; font-size: 13px; white-space-collapse: preserve; background-color: rgb(255, 255, 255);&quot;&gt;&lt;br&gt;&lt;/span&gt;&lt;/div&gt;" style="text;strokeColor=none;fillColor=none;spacingLeft=4;spacingRight=4;overflow=hidden;rotatable=0;points=[[0,0.5],[1,0.5]];portConstraint=eastwest;fontSize=12;whiteSpace=wrap;html=1;" parent="FYgg8iOb-SnoNEJaHb6P-20" vertex="1">
                    <mxGeometry y="26" width="270" height="154" as="geometry"/>
                </mxCell>
                <mxCell id="FYgg8iOb-SnoNEJaHb6P-24" value="companies" style="swimlane;fontStyle=0;childLayout=stackLayout;horizontal=1;startSize=26;horizontalStack=0;resizeParent=1;resizeParentMax=0;resizeLast=0;collapsible=1;marginBottom=0;align=center;fontSize=14;" parent="1" vertex="1">
                    <mxGeometry x="970" y="310" width="290" height="280" as="geometry"/>
                </mxCell>
                <mxCell id="FYgg8iOb-SnoNEJaHb6P-27" value="&lt;div&gt;&lt;font style=&quot;font-size: 18px;&quot;&gt;&lt;span style=&quot;font-family: Arial; white-space-collapse: preserve; background-color: rgb(255, 255, 255);&quot;&gt;・id&lt;/span&gt;&lt;span style=&quot;font-family: Arial; white-space-collapse: preserve; background-color: rgb(255, 255, 255);&quot;&gt;&lt;br&gt;&lt;/span&gt;&lt;/font&gt;&lt;/div&gt;&lt;div&gt;&lt;font style=&quot;font-size: 18px;&quot;&gt;&lt;span style=&quot;font-family: Arial; white-space-collapse: preserve; background-color: rgb(255, 255, 255);&quot;&gt;・company_name&lt;/span&gt;&lt;font face=&quot;Arial&quot;&gt;&lt;span style=&quot;white-space-collapse: preserve; background-color: rgb(255, 255, 255);&quot;&gt;&lt;br&gt;&lt;/span&gt;&lt;/font&gt;&lt;/font&gt;&lt;/div&gt;&lt;font style=&quot;font-size: 18px;&quot; face=&quot;Arial&quot;&gt;&lt;span style=&quot;white-space-collapse: preserve; background-color: rgb(255, 255, 255);&quot;&gt;・capital&lt;/span&gt;&lt;/font&gt;&lt;div&gt;&lt;span style=&quot;font-family: Arial; white-space-collapse: preserve; background-color: rgb(255, 255, 255);&quot;&gt;&lt;font style=&quot;font-size: 18px;&quot;&gt;・member&lt;/font&gt;&lt;/span&gt;&lt;/div&gt;&lt;div&gt;&lt;font style=&quot;font-size: 18px;&quot; face=&quot;Arial&quot;&gt;&lt;span style=&quot;white-space-collapse: preserve; background-color: rgb(255, 255, 255);&quot;&gt;・sales&lt;/span&gt;&lt;/font&gt;&lt;/div&gt;&lt;div&gt;&lt;span style=&quot;font-family: Arial; white-space-collapse: preserve; background-color: rgb(255, 255, 255);&quot;&gt;&lt;font size=&quot;3&quot;&gt;・description&lt;/font&gt;&lt;/span&gt;&lt;font size=&quot;3&quot; face=&quot;Arial&quot;&gt;&lt;span style=&quot;white-space-collapse: preserve; background-color: rgb(255, 255, 255);&quot;&gt;&lt;br&gt;&lt;/span&gt;&lt;/font&gt;&lt;/div&gt;&lt;div&gt;&lt;font size=&quot;3&quot; face=&quot;Arial&quot;&gt;&lt;span style=&quot;white-space-collapse: preserve; background-color: rgb(255, 255, 255);&quot;&gt;・content&lt;/span&gt;&lt;/font&gt;&lt;/div&gt;&lt;div&gt;&lt;span style=&quot;font-family: Arial; white-space-collapse: preserve; background-color: rgb(255, 255, 255);&quot;&gt;&lt;font size=&quot;3&quot;&gt;・address&lt;/font&gt;&lt;/span&gt;&lt;font size=&quot;3&quot; face=&quot;Arial&quot;&gt;&lt;span style=&quot;white-space-collapse: preserve; background-color: rgb(255, 255, 255);&quot;&gt;&lt;br&gt;&lt;/span&gt;&lt;/font&gt;&lt;/div&gt;&lt;div&gt;&lt;span style=&quot;font-family: Arial; white-space-collapse: preserve; background-color: rgb(255, 255, 255);&quot;&gt;&lt;font size=&quot;3&quot;&gt;・industry&lt;/font&gt;&lt;/span&gt;&lt;span style=&quot;font-family: Arial; white-space-collapse: preserve; background-color: rgb(255, 255, 255);&quot;&gt;&lt;font size=&quot;3&quot;&gt;&lt;br&gt;&lt;/font&gt;&lt;/span&gt;&lt;/div&gt;&lt;div&gt;&lt;span style=&quot;font-family: Arial; white-space-collapse: preserve; background-color: rgb(255, 255, 255);&quot;&gt;&lt;font size=&quot;3&quot;&gt;・company_url&lt;/font&gt;&lt;/span&gt;&lt;span style=&quot;font-family: Arial; white-space-collapse: preserve; background-color: rgb(255, 255, 255);&quot;&gt;&lt;font size=&quot;3&quot;&gt;&lt;br&gt;&lt;/font&gt;&lt;/span&gt;&lt;/div&gt;&lt;div&gt;&lt;font size=&quot;3&quot;&gt;&lt;span style=&quot;font-family: Arial; white-space-collapse: preserve; background-color: rgb(255, 255, 255);&quot;&gt;・created_at&lt;/span&gt;&lt;font face=&quot;Arial&quot;&gt;&lt;span style=&quot;white-space-collapse: preserve; background-color: rgb(255, 255, 255);&quot;&gt;&lt;br&gt;&lt;/span&gt;&lt;/font&gt;&lt;/font&gt;&lt;/div&gt;&lt;div&gt;&lt;span style=&quot;font-family: Arial; white-space-collapse: preserve; background-color: rgb(255, 255, 255);&quot;&gt;&lt;font size=&quot;3&quot;&gt;・updated_at&lt;/font&gt;&lt;/span&gt;&lt;span style=&quot;font-family: Arial; font-size: 13px; white-space-collapse: preserve; background-color: rgb(255, 255, 255);&quot;&gt;&lt;br&gt;&lt;/span&gt;&lt;/div&gt;" style="text;strokeColor=none;fillColor=none;spacingLeft=4;spacingRight=4;overflow=hidden;rotatable=0;points=[[0,0.5],[1,0.5]];portConstraint=eastwest;fontSize=12;whiteSpace=wrap;html=1;" parent="FYgg8iOb-SnoNEJaHb6P-24" vertex="1">
                    <mxGeometry y="26" width="290" height="254" as="geometry"/>
                </mxCell>
                <mxCell id="FYgg8iOb-SnoNEJaHb6P-47" value="" style="edgeStyle=entityRelationEdgeStyle;fontSize=12;html=1;endArrow=ERzeroToMany;startArrow=ERmandOne;rounded=0;exitX=0.003;exitY=0.295;exitDx=0;exitDy=0;exitPerimeter=0;entryX=0.992;entryY=0.07;entryDx=0;entryDy=0;entryPerimeter=0;" parent="1" source="FYgg8iOb-SnoNEJaHb6P-4" target="FYgg8iOb-SnoNEJaHb6P-9" edge="1">
                    <mxGeometry width="100" height="100" relative="1" as="geometry">
                        <mxPoint x="470" y="480" as="sourcePoint"/>
                        <mxPoint x="400" y="456" as="targetPoint"/>
                        <Array as="points">
                            <mxPoint x="400" y="470"/>
                        </Array>
                    </mxGeometry>
                </mxCell>
                <mxCell id="FYgg8iOb-SnoNEJaHb6P-49" value="" style="edgeStyle=entityRelationEdgeStyle;fontSize=12;html=1;endArrow=ERoneToMany;startArrow=ERmandOne;rounded=0;exitX=-0.002;exitY=0.848;exitDx=0;exitDy=0;exitPerimeter=0;entryX=0.989;entryY=0.441;entryDx=0;entryDy=0;entryPerimeter=0;" parent="1" source="FYgg8iOb-SnoNEJaHb6P-4" target="FYgg8iOb-SnoNEJaHb6P-21" edge="1">
                    <mxGeometry width="100" height="100" relative="1" as="geometry">
                        <mxPoint x="590" y="541" as="sourcePoint"/>
                        <mxPoint x="410" y="680.02" as="targetPoint"/>
                        <Array as="points">
                            <mxPoint x="420" y="842.02"/>
                        </Array>
                    </mxGeometry>
                </mxCell>
                <mxCell id="FYgg8iOb-SnoNEJaHb6P-55" value="" style="edgeStyle=entityRelationEdgeStyle;fontSize=12;html=1;endArrow=ERzeroToMany;startArrow=ERmandOne;rounded=0;entryX=1.003;entryY=0.439;entryDx=0;entryDy=0;entryPerimeter=0;exitX=-0.017;exitY=0.425;exitDx=0;exitDy=0;exitPerimeter=0;" parent="1" source="FYgg8iOb-SnoNEJaHb6P-27" target="FYgg8iOb-SnoNEJaHb6P-4" edge="1">
                    <mxGeometry width="100" height="100" relative="1" as="geometry">
                        <mxPoint x="977" y="483" as="sourcePoint"/>
                        <mxPoint x="860" y="370" as="targetPoint"/>
                        <Array as="points">
                            <mxPoint x="788.03" y="433.02"/>
                            <mxPoint x="1006.03" y="409.02"/>
                            <mxPoint x="796.03" y="409.02"/>
                        </Array>
                    </mxGeometry>
                </mxCell>
            </root>
        </mxGraphModel>
    </diagram>
</mxfile>